<?xml version="1.0" encoding="UTF-8" standalone="no"?>
<!-- Created with Inkscape (http://www.inkscape.org/) -->

<svg
   xmlns:osb="http://www.openswatchbook.org/uri/2009/osb"
   xmlns:dc="http://purl.org/dc/elements/1.1/"
   xmlns:cc="http://creativecommons.org/ns#"
   xmlns:rdf="http://www.w3.org/1999/02/22-rdf-syntax-ns#"
   xmlns:svg="http://www.w3.org/2000/svg"
   xmlns="http://www.w3.org/2000/svg"
   xmlns:sodipodi="http://sodipodi.sourceforge.net/DTD/sodipodi-0.dtd"
   xmlns:inkscape="http://www.inkscape.org/namespaces/inkscape"
   width="210mm"
   height="297mm"
   viewBox="0 0 744.09448819 1052.3622047"
   id="svg2"
   version="1.1"
   inkscape:version="0.91 r13725"
   sodipodi:docname="candoia.svg">
  <defs
     id="defs4">
    <linearGradient
       id="linearGradient5618"
       osb:paint="solid">
      <stop
         style="stop-color:#f95800;stop-opacity:1;"
         offset="0"
         id="stop5620" />
    </linearGradient>
    <linearGradient
       id="linearGradient5610"
       osb:paint="solid">
      <stop
         style="stop-color:#f95800;stop-opacity:1;"
         offset="0"
         id="stop5612" />
    </linearGradient>
  </defs>
  <sodipodi:namedview
     id="base"
     pagecolor="#ffffff"
     bordercolor="#666666"
     borderopacity="1.0"
     inkscape:pageopacity="0.0"
     inkscape:pageshadow="2"
     inkscape:zoom="0.98994949"
     inkscape:cx="51.923951"
     inkscape:cy="679.39642"
     inkscape:document-units="px"
     inkscape:current-layer="layer1"
     showgrid="false"
     inkscape:snap-bbox="true"
     inkscape:snap-bbox-midpoints="true"
     inkscape:snap-others="true"
     inkscape:snap-object-midpoints="true"
     inkscape:window-width="1920"
     inkscape:window-height="1027"
     inkscape:window-x="-8"
     inkscape:window-y="-8"
     inkscape:window-maximized="1" />
  <metadata
     id="metadata7">
    <rdf:RDF>
      <cc:Work
         rdf:about="">
        <dc:format>image/svg+xml</dc:format>
        <dc:type
           rdf:resource="http://purl.org/dc/dcmitype/StillImage" />
        <dc:title />
      </cc:Work>
    </rdf:RDF>
  </metadata>
  <g
     inkscape:groupmode="layer"
     id="layer2"
     inkscape:label="Layer 2" />
  <g
     inkscape:label="Layer 1"
     inkscape:groupmode="layer"
     id="layer1">
    <g
       id="g4141"
       transform="matrix(1.0619259,0,0,1.0619259,-23.748016,-22.743192)">
      <circle
         inkscape:export-ydpi="90"
         inkscape:export-xdpi="90"
         r="241.07143"
         cy="367.2644"
         cx="383.49063"
         id="path5709"
         style="fill:#e77300;fill-opacity:1;fill-rule:nonzero" />
      <path
         inkscape:export-ydpi="90"
         inkscape:export-xdpi="90"
         inkscape:connector-curvature="0"
         id="path3349"
         d="m 319.92856,495.1626 c -2.2,-0.49192 -7.825,-1.41513 -12.5,-2.05157 -13.67582,-1.8618 -26.09211,-5.59821 -38.19495,-11.49395 -12.93723,-6.3022 -20.02516,-11.06978 -26.07026,-17.53572 -2.32914,-2.49128 -6.93479,-6.9576 -10.23479,-9.92517 -3.3,-2.96757 -6.88346,-6.77093 -7.96324,-8.45192 -1.07978,-1.68099 -2.42978,-3.78283 -3,-4.67075 -0.57022,-0.88792 -2.00451,-3.36292 -3.18731,-5.5 -1.1828,-2.13708 -3.53709,-5.62465 -5.23176,-7.75015 -8.70782,-10.92163 -15.12303,-32.0195 -13.66433,-44.93825 1.01404,-8.98063 6.87623,-30.98687 10.57484,-39.6972 5.43615,-12.80229 9.49532,-18.48157 19.52537,-27.31842 17.30207,-15.24378 33.14226,-21.47365 56.94643,-22.39676 11.02612,-0.42758 15.91178,-0.16811 23,1.2215 12.45949,2.44262 31.04429,9.15467 35.02458,12.64941 1.78398,1.56635 4.63335,3.12586 6.33196,3.46558 1.80123,0.36024 4.08501,1.92434 5.47973,3.75291 1.31525,1.72438 4.59014,4.21863 7.27755,5.54277 2.6874,1.32414 7.36998,4.92201 10.40573,7.99527 3.03575,3.07326 8.33864,7.83774 11.78421,10.58774 3.44557,2.75 7.48677,6.58268 8.98046,8.51707 5.82697,7.54622 26.01589,25.57463 33.94804,30.31512 13.52669,8.08396 25.55778,8.32965 37.46258,0.76504 6.45492,-4.10162 8.15117,-7.68675 7.31549,-15.46174 -2.62001,-24.37615 -6.09039,-33.88568 -14.9104,-40.85749 -6.67293,-5.27465 -10.73478,-7.25174 -26.58118,-12.9383 -16.32826,-5.85947 -21.2799,-8.80496 -25.78745,-15.3397 -3.22658,-4.67767 -3.41758,-5.39684 -2.96283,-11.15575 0.26735,-3.38567 1.21632,-7.19829 2.10881,-8.47251 0.8925,-1.27421 1.62272,-3.80287 1.62272,-5.61923 0,-9.78863 7.69218,-21.03773 18.37043,-26.86504 4.21981,-2.30283 6.37106,-2.80224 12.12957,-2.81587 9.42705,-0.0223 17.05753,3.83744 24.44526,12.36522 5.18424,5.98424 8.29296,7.49073 9.41637,4.56318 0.31658,-0.825 1.23482,-1.5 2.04054,-1.5 0.80572,0 3.81775,-1.4625 6.69341,-3.25 4.77292,-2.96683 5.97676,-3.26088 13.81645,-3.37492 8.3193,-0.12101 10.98207,-0.41402 21.58797,-2.37555 11.11583,-2.05583 15.45424,-2.04529 17.54213,0.0426 1.07683,1.07684 1.95787,3.00082 1.95787,4.27553 0,2.87755 -7.55722,10.86032 -18.64383,19.69368 -4.47911,3.56877 -8.63243,7.5022 -9.22961,8.74097 -1.41426,2.93368 -6.09286,5.73009 -13.99794,8.36657 -5.30001,1.76765 -6.98349,1.94158 -10.01161,1.03433 -3.84528,-1.15207 -8.48002,-0.54959 -7.53499,0.9795 0.30773,0.49793 2.89017,2.07816 5.73875,3.51163 21.41644,10.77721 32.79748,24.20681 37.64256,44.41813 4.66369,19.45466 1.00072,39.51392 -10.35159,56.68754 -2.63586,3.9875 -5.20181,7.25 -5.70211,7.25 -0.5003,0 -0.90963,0.66 -0.90963,1.46667 0,4.77732 -18.45029,17.30229 -31.77606,21.57116 -17.1446,5.49222 -31.51737,5.63557 -51.72394,0.51587 -18.82687,-4.77012 -31.25475,-12.75442 -55.99779,-35.97582 -30.15123,-28.29699 -36.68219,-33.40231 -53.51184,-41.83073 -7.23238,-3.62203 -11.43403,-5.03574 -17.65962,-5.94184 -18.50938,-2.69394 -34.87406,4.06138 -40.41549,16.68347 -2.25765,5.1424 -2.79329,20.00967 -0.99117,27.51122 4.47041,18.60874 18.32321,37.48961 41.2477,56.21918 7.62202,6.22728 18.80522,12.47142 24.82821,13.86283 1.925,0.44471 6.425,1.5026 10,2.35086 9.05909,2.1495 29.69429,3.04106 40.18357,1.73616 11.9746,-1.48968 22.72533,-4.59283 58.09683,-16.76937 8.26717,-2.84595 18.34365,-4.80645 35.33239,-6.87434 15.99817,-1.94731 28.73658,-5.50143 38.01032,-10.60516 3.91771,-2.15609 7.78607,-3.92016 8.59636,-3.92016 0.81029,0 2.88677,-0.70516 4.61441,-1.56701 5.5087,-2.74811 16.41468,-5.42822 24.70781,-6.07188 9.35589,-0.72614 16.44434,0.92081 25.17845,5.85004 5.79408,3.26997 7.26578,5.20293 5.38975,7.07896 -0.87424,0.87424 -3.35569,0.5817 -10.18957,-1.20126 -12.37494,-3.22861 -17.76831,-2.61541 -27.24513,3.09765 -3.93538,2.37242 -8.50972,5.48142 -10.16521,6.90889 -9.31606,8.03287 -24.91253,16.26968 -40.50998,21.39415 -4.675,1.53595 -13.225,4.5803 -19,6.76522 -5.775,2.18493 -14.14364,5.25985 -18.59698,6.83316 -4.45334,1.57331 -14.89973,5.78682 -23.2142,9.36336 -15.82868,6.80884 -31.16773,11.39491 -49.05127,14.66534 -11.92834,2.18138 -42.10395,3.35897 -48.63755,1.89806 z m 34,-4.24082 c 3.85,-0.52622 8.46519,-1.1615 10.25598,-1.41175 2.61377,-0.36524 3.55518,-1.17105 4.77287,-4.0854 1.63435,-3.91155 0.56888,-5.87927 -2.52885,-4.67027 -0.825,0.32198 -2.0625,0.8154 -2.75,1.09648 -1.96852,0.80482 -1.52089,-4.45194 0.47418,-5.56844 1.99866,-1.1185 4.97908,0.10233 7.27959,2.98185 1.57463,1.97095 2.31413,1.89552 17.76101,-1.81161 2.99157,-0.71795 3.89614,-2.34428 2.06153,-3.70642 -1.77237,-1.31594 -2.9767,-5.38732 -1.80737,-6.11001 1.21141,-0.74869 5.77819,1.54066 6.42246,3.2196 0.30329,0.79035 0.12615,2.23164 -0.39365,3.20288 -0.51979,0.97124 -0.72162,2.62614 -0.44852,3.67756 0.2731,1.05142 -0.0875,2.6973 -0.80134,3.65751 -1.41825,1.90775 -11.72235,4.2303 -14.64811,3.3017 -1.13308,-0.35963 -2.64355,0.34915 -4.14105,1.94317 -2.28094,2.42795 -2.29098,2.50929 -0.30967,2.50929 2.13182,0 14.11529,-2.96895 20.46534,-5.07036 l 3.6644,-1.21266 -0.32285,-5.60849 c -0.35817,-6.22181 1.21408,-9.10849 4.96098,-9.10849 1.24635,0 3.11183,-1.29155 4.41879,-3.0593 2.68625,-3.63334 7.40774,-3.88254 7.90415,-0.41717 0.34619,2.41662 -5.60026,9.47647 -7.98194,9.47647 -0.90269,0 -1.83058,0.5625 -2.06198,1.25 -0.33297,0.98932 -0.74887,0.97919 -1.9943,-0.0486 -1.81578,-1.49841 -3.07393,-0.20487 -2.14791,2.20832 1.56738,4.08452 16.91586,-0.42142 18.01448,-5.28862 0.3254,-1.44163 1.66133,-3.53159 2.96872,-4.64436 2.16118,-1.83946 2.28061,-2.37259 1.31496,-5.86989 -1.31362,-4.75756 -0.38754,-5.8462 4.61504,-5.42511 5.1647,0.43473 6.36067,2.56958 4.46131,7.96357 -1.14367,3.2479 -2.20387,4.44214 -4.68417,5.27637 -3.44594,1.159 -6.53546,3.57828 -4.56964,3.57828 0.97732,0 16.31324,-5.82154 17.04896,-6.47182 0.15037,-0.1329 -0.85671,-2.21861 -2.23796,-4.63491 -3.09989,-5.42283 -3.16413,-7.33951 -0.31293,-9.33657 3.14729,-2.20445 4.64477,-1.94209 6.00936,1.05285 1.00164,2.19836 0.91947,2.80662 -0.52144,3.86024 -2.13377,1.56025 -2.228,2.66605 -0.15955,1.87231 0.87667,-0.33641 2.52904,0.32381 3.80092,1.51868 1.90606,1.79064 2.7636,1.96651 5.60925,1.15039 3.31834,-0.95165 8.03895,-4.58387 8.03895,-6.18544 0,-0.45413 -2.0395,-0.82569 -4.53222,-0.82569 -3.78561,0 -4.67001,-0.37066 -5.3686,-2.25 -1.17227,-3.15361 -0.42989,-4.43386 2.96475,-5.11279 5.66219,-1.13243 9.0737,0.30358 10.72835,4.51591 0.83111,2.11578 1.94038,3.84688 2.46507,3.84688 2.04345,0 13.29161,-3.20244 14.1413,-4.02614 0.52782,-0.51168 0.21833,-1.90947 -0.75,-3.38733 -2.15844,-3.2942 -2.07983,-4.76866 0.42393,-7.95167 l 2.07258,-2.63486 -2.12224,0 c -1.16723,0 -3.49538,0.71008 -5.17366,1.57795 l -3.05142,1.57795 2.10108,2.2365 c 1.15559,1.23008 2.10108,2.78583 2.10108,3.45723 0,2.23931 -3.20652,6.15037 -5.04243,6.15037 -2.35894,0 -5.95757,-4.61178 -5.95757,-7.63486 0,-2.06897 -0.46958,-2.36332 -3.75,-2.35059 -2.0625,0.008 -5.74814,0.7103 -8.19031,1.56065 -2.44217,0.85035 -5.50258,1.27947 -6.80092,0.95361 -1.53337,-0.38485 -3.36057,0.11956 -5.21406,1.43936 -1.88734,1.3439 -4.43202,2.03183 -7.5158,2.03183 -3.4853,0 -5.52656,0.65916 -8.08549,2.61095 -2.52254,1.92404 -4.09711,2.4418 -5.98487,1.968 -1.79047,-0.44938 -3.33947,-0.0312 -5.145,1.38905 -1.4208,1.1176 -3.44099,2.032 -4.48931,2.032 -2.63231,0 -14.84065,3.99812 -17.52712,5.73997 -1.24151,0.80497 -5.57239,1.59836 -9.92381,1.81797 -8.69294,0.43874 -10.58851,1.4418 -8.0421,4.25554 1.20401,1.33043 1.50143,2.77331 1.04355,5.0627 -0.91795,4.58978 -2.94383,3.30114 -2.54819,-1.62088 0.30178,-3.75441 0.11205,-4.10893 -2.5,-4.67111 -1.55461,-0.3346 -5.97657,-0.58117 -9.82657,-0.54794 -3.85,0.0332 -9.475,0.0508 -12.5,0.0392 -3.025,-0.0117 -7.37435,-0.0147 -9.66522,-0.007 -2.29087,0.008 -4.45493,-0.45417 -4.80902,-1.0271 -0.35408,-0.57259 -2.19793,-1.04135 -4.09744,-1.04135 -1.8995,0 -6.71044,-0.95453 -10.69098,-2.12117 -3.98054,-1.16664 -8.81234,-2.34172 -10.73734,-2.61128 -1.925,-0.26956 -4.4,-1.2721 -5.5,-2.22787 -1.1,-0.95578 -4.13575,-2.745 -6.74611,-3.97605 -2.61036,-1.23105 -5.60012,-3.32398 -6.64392,-4.65095 -1.04379,-1.32697 -2.43179,-2.41268 -3.08442,-2.41268 -3.07034,0 -12.94072,-8.21188 -21.17452,-17.6166 -4.99985,-5.71087 -9.40071,-10.3834 -9.7797,-10.3834 -0.37899,0 -1.54559,-0.6263 -2.59245,-1.39179 -1.60834,-1.17604 -1.69863,-1.63851 -0.58244,-2.98342 1.13713,-1.37017 0.95795,-1.72965 -1.28775,-2.58347 -1.43478,-0.5455 -2.60869,-1.76088 -2.60869,-2.70084 0,-0.93997 -0.85698,-3.53861 -1.9044,-5.77476 -7.42277,-15.84693 -10.58042,-27.52977 -9.58789,-35.47374 0.37204,-2.97769 1.1975,-6.30032 1.83436,-7.38363 0.89392,-1.52058 0.87293,-2.07287 -0.0921,-2.42234 -1.68232,-0.60924 -1.57354,-1.92829 0.33282,-4.03601 0.87056,-0.9625 2.8918,-3.89721 4.49167,-6.52158 1.59986,-2.62437 4.03759,-5.20073 5.41717,-5.72525 1.37959,-0.52452 2.50834,-1.3836 2.50834,-1.90908 0,-0.52547 1.0125,-2.55632 2.25,-4.51299 2.20686,-3.48937 2.34834,-3.54629 7.37911,-2.96922 5.2641,0.60384 8.23622,-0.85315 4.10964,-2.01462 -2.19617,-0.61814 -2.20171,-0.65844 -0.29121,-2.11838 1.07115,-0.81854 2.70681,-1.24728 3.63479,-0.95275 0.92798,0.29453 3.94,-0.35244 6.69338,-1.43772 5.3654,-2.11485 6.71365,-1.87131 5.20863,0.94085 -0.72778,1.35986 -0.42206,2.10914 1.32856,3.25619 1.94892,1.27698 2.54505,1.29159 4.17161,0.10222 1.04376,-0.76322 1.49674,-1.38767 1.00662,-1.38767 -0.49012,0 -0.39034,-0.50079 0.22174,-1.11287 1.63666,-1.63666 3.71355,-0.10586 2.2496,1.65809 -2.32556,2.80213 -0.004,3.69363 7.73155,2.96877 7.02306,-0.65812 7.47644,-0.57816 7.99642,1.41026 0.30318,1.15936 1.05936,2.02971 1.6804,1.93412 0.62104,-0.0956 1.92338,0.17289 2.8941,0.59663 0.97072,0.42375 2.66418,0.53529 3.76324,0.24788 1.34622,-0.35204 2.97246,0.45161 4.98365,2.46279 2.2434,2.24341 3.73336,2.9069 5.99507,2.66966 2.57371,-0.26997 3.26204,0.18949 4.75141,3.17155 0.95793,1.91798 2.59049,3.64587 3.6279,3.83974 3.11216,0.5816 12.61379,7.10574 12.61379,8.66106 0,1.85746 4.56717,4.87786 6.01904,3.98055 1.30902,-0.80902 4.98096,2.24376 4.98096,4.14108 0,1.76175 5.7698,4.673 7.75308,3.91195 1.52195,-0.58403 7.24692,3.87611 7.24692,5.64583 0,1.37497 -2.76942,0.90063 -4.42857,-0.75852 -0.86429,-0.86428 -1.57143,-1.16057 -1.57143,-0.65841 0,0.50217 1.0125,1.86697 2.25,3.03291 9.1935,8.66183 15.75,15.52962 15.75,16.49777 0,1.02394 3.84533,4.69916 4.91667,4.69916 0.50416,0 1.08967,-0.51901 1.30112,-1.15336 0.26467,-0.79402 1.19421,-0.62279 2.98347,0.54958 1.75954,1.15289 2.72142,1.33575 2.97796,0.56613 0.35186,-1.05559 7.82078,4.93402 7.82078,6.27179 0,0.32567 -1.33283,0.0891 -2.96183,-0.52584 -3.56192,-1.34447 -4.59044,-0.60875 -3.08401,2.20605 0.68587,1.28156 2.10457,2.08565 3.67981,2.08565 1.55903,0 3.66177,1.17559 5.36603,3 1.54133,1.65 3.55938,3 4.48454,3 2.54793,0 1.28514,-2.18717 -2.27565,-3.94146 -1.73991,-0.8572 -3.17369,-2.12104 -3.18618,-2.80854 -0.0263,-1.44637 2.58433,-1.69484 3.43004,-0.32646 0.6677,1.08038 9.4999,4.1376 13.09273,4.532 1.36198,0.1495 4.66718,1.40848 7.34489,2.79773 2.67771,1.38924 7.20482,2.84722 10.06024,3.23994 4.7666,0.65557 7.33173,2.55778 5.67854,4.21098 -1.26956,1.26955 -12.24321,-2.16907 -15.60699,-4.89049 -2.74537,-2.22109 -4.50048,-2.8137 -8.33334,-2.8137 -3.32184,0 -4.72962,0.3776 -4.45699,1.19548 0.48472,1.45418 5.606,2.99603 8.01817,2.41401 1.98395,-0.4787 2.41728,0.97917 0.5,1.68218 -3.14015,1.15138 1.71266,3.01904 9.92553,3.81994 4.85346,0.4733 10.96808,1.1376 13.58806,1.47624 5.84967,0.75608 10.14918,-0.61368 4.73641,-1.50895 -2.64037,-0.43672 -3.5,-1.07012 -3.5,-2.5789 0,-1.60345 0.89225,-2.13418 4.5,-2.67674 6.40806,-0.96368 12.45991,-2.37143 13.82706,-3.21638 2.67372,-1.65245 0.96611,-2.65027 -3.57706,-2.09021 -6.10931,0.75313 -10.72319,-1.84163 -11.77288,-6.62084 -0.79132,-3.60285 0.88131,-5.58066 5.52528,-6.5334 2.20443,-0.45226 2.52392,-1.0693 2.68308,-5.18198 0.14192,-3.66686 0.74342,-5.15262 2.80337,-6.92451 3.2796,-2.821 5.55121,-2.85795 7.88839,-0.12833 2.35814,2.75411 1.52025,7.32617 -2.01975,11.02113 -3.39788,3.54663 -2.64302,7.23198 1.91003,9.32506 1.77786,0.81729 3.91958,1.99191 4.75937,2.61025 1.90026,1.39916 13.1373,-3.63151 16.97311,-7.59864 1.375,-1.42207 4.3,-4.35744 6.5,-6.52303 l 4,-3.93745 -4.64301,-0.0125 c -3.21324,-0.009 -4.82026,0.44944 -5.21862,1.48753 -0.31658,0.825 -1.22983,1.5 -2.02943,1.5 -0.79961,0 -1.94914,1.50077 -2.5545,3.33505 -2.01474,6.10472 -9.4914,11.20705 -12.61882,8.61152 -1.11008,-0.92128 -1.31435,-2.46662 -0.8371,-6.33262 0.75787,-6.13911 2.72932,-9.61395 5.45447,-9.61395 1.96227,0 1.95757,-0.0667 -0.21111,-3 -1.2199,-1.65 -2.78181,-3 -3.47092,-3 -2.45397,0 -2.44059,-2.02128 0.0297,-4.49162 2.70579,-2.70578 8.0911,-3.38591 11.66503,-1.4732 3.65181,1.95439 1.32071,10.96482 -2.83673,10.96482 -1.53559,0 -1.53413,0.12345 0.0198,1.67735 1.40587,1.40586 2.10515,1.48242 4.32052,0.47303 2.35699,-1.07391 2.57135,-1.58715 1.97984,-4.74017 -0.59825,-3.18899 -0.29519,-3.87307 3.08919,-6.97304 2.33569,-2.13941 4.77103,-3.43717 6.45011,-3.43717 1.48368,0 2.93535,-0.61959 3.22595,-1.37687 0.65014,-1.69425 -1.07984,-9.77117 -2.37173,-11.07313 -1.35526,-1.36582 -1.16111,-2.79581 0.30735,-2.26382 0.6875,0.24906 2.02259,-0.21969 2.96686,-1.04167 2.13706,-1.86029 6.73079,-1.94725 7.8425,-0.14847 1.14613,1.85448 1.57678,1.09851 2.21311,-3.88488 0.48996,-3.83713 0.35305,-4.22708 -1.29987,-3.70246 -2.66232,0.84498 -5.59892,-1.35362 -7.53112,-5.63848 l -1.67936,-3.72415 3.11431,-3.32304 c 4.22769,-4.51102 4.03779,-6.94093 -0.75284,-9.63341 -4.7333,-2.66026 -6.93053,-7.12317 -5.28501,-10.73468 0.61521,-1.35018 1.8032,-2.4549 2.63999,-2.4549 2.10327,0 1.92342,-0.78419 -1.08417,-4.72734 -2.56811,-3.36698 -2.62648,-3.38632 -4.0567,-1.34439 -2.26412,3.23249 -5.89572,2.57066 -10.57704,-1.92756 -3.23853,-3.11187 -3.89564,-4.26572 -2.96136,-5.2 0.66039,-0.66039 1.20071,-1.67586 1.20071,-2.2566 0,-1.77797 -5.87432,-3.81711 -8.80169,-3.0553 -1.48407,0.3862 -4.27331,0.77172 -6.19831,0.85669 -3.13772,0.13851 -3.53336,-0.13641 -3.82226,-2.65597 -0.37826,-3.2989 1.10465,-5.42337 4.14488,-5.93811 2.06203,-0.34912 2.03169,-0.44027 -0.57262,-1.72055 -2.84813,-1.40014 -3.56605,-3.40849 -1.64324,-4.59685 0.60872,-0.37621 3.98372,-0.68402 7.5,-0.68402 3.51628,0 6.39324,-0.41414 6.39324,-0.92031 0,-0.51019 1.55973,-0.62771 3.5,-0.26371 3.69979,0.69408 4.0709,0.16952 3.64366,-5.15025 -0.0921,-1.14635 0.73794,-2.9036 1.84447,-3.90499 1.10653,-1.00139 2.01187,-2.58123 2.01187,-3.51074 0,-2.19561 2.83913,-4.69493 6,-5.28188 2.49651,-0.46357 2.49686,-0.46526 0.25,-1.2078 -4.4484,-1.47011 -2.09567,-3.20523 5.414,-3.9928 2.1098,-0.22126 3.96006,-0.42821 4.11168,-0.4599 1.02291,-0.21379 -3.12665,-6.05762 -4.30136,-6.05762 -0.97928,0 -1.47432,-1.03194 -1.47432,-3.07332 0,-3.82826 -2.34332,-3.69324 -5.32705,0.30695 -2.42865,3.25601 -1.64214,4.52899 1.82282,2.95025 3.1155,-1.41952 3.14284,-0.97599 0.13956,2.2646 -2.72546,2.94082 -5.23346,3.22173 -8.47749,0.94952 -2.47916,-1.73647 -4.27007,-1.11023 -2.34117,0.81867 0.65083,0.65083 1.18333,1.97097 1.18333,2.93364 0,0.96267 0.77539,2.18424 1.72308,2.71459 1.40835,0.78815 1.54094,1.48219 0.72592,3.79969 -1.40962,4.00822 -3.87051,3.65979 -4.2766,-0.60551 -0.18018,-1.89251 -1.19268,-4.54069 -2.25,-5.88486 -2.07793,-2.64166 -2.5294,-5.17422 -0.9224,-5.17422 0.55,0 1,-0.48575 1,-1.07946 0,-0.68238 -1.1186,-0.83377 -3.04096,-0.41154 -1.93051,0.42401 -3.61326,0.19293 -4.60821,-0.6328 -1.30682,-1.08457 -1.77531,-1.01618 -2.81929,0.41155 -0.68861,0.94174 -2.33167,1.71225 -3.65124,1.71225 -1.31956,0 -2.96127,0.9 -3.64823,2 -0.7061,1.13065 -2.33202,2 -3.74054,2 -1.45972,0 -2.49153,0.57531 -2.49153,1.38922 0,1.8852 4.01407,6.36397 4.58051,5.11078 1.61327,-3.56916 2.3373,-4.01312 4.42965,-2.71612 2.60309,1.61358 3.98984,0.79926 3.98984,-2.3429 0,-1.50309 0.57634,-2.44098 1.5,-2.44098 0.825,0 1.5,0.83298 1.5,1.85106 0,2.10255 4.67295,11.31809 6.23047,12.28714 1.77223,1.10262 -0.22256,2.8618 -3.24508,2.8618 -1.59311,0 -4.55435,1.125 -6.58053,2.5 -4.09209,2.77697 -6.47779,3.05511 -11.50564,1.34139 -6.25438,-2.13177 -12.00716,-6.83116 -14.06938,-11.49317 -2.5757,-5.82279 -1.74407,-8.70793 2.25673,-7.82921 2.46461,0.54132 2.91343,0.32994 2.91343,-1.37217 0,-1.10663 -0.83423,-2.27684 -1.85384,-2.60045 -1.01961,-0.32361 -2.69694,-2.15394 -3.7274,-4.06739 -1.27621,-2.36978 -2.58366,-3.479 -4.10071,-3.479 l -2.22714,0 2.45454,2.45454 c 3.81168,3.81168 3.2347,5.54546 -1.84545,5.54546 -2.365,0 -4.82093,-0.52093 -5.45762,-1.15762 -0.87682,-0.87682 -1.5201,-0.85678 -2.65201,0.0826 -1.94381,1.61322 -5.04871,0.57907 -7.4582,-2.48411 -1.05601,-1.34249 -2.26981,-2.44089 -2.69735,-2.44089 -0.42754,0 -1.57192,-0.71908 -2.54307,-1.59796 -0.97115,-0.87888 -2.20183,-1.32843 -2.73486,-0.99901 -1.50714,0.93147 -0.12192,4.59697 1.73724,4.59697 3.41411,0 6.10587,2.95299 6.10587,6.69844 0,4.97356 4.95845,9.92935 8.19929,8.1949 1.91588,-1.02534 2.57256,-0.70401 5.73223,2.80495 1.96267,2.17962 5.14348,6.03964 7.06848,8.57783 1.925,2.53818 4.69305,5.12559 6.15122,5.74978 1.45818,0.6242 3.70818,2.26147 5,3.63838 l 2.34878,2.50348 -2.66653,2.29635 c -1.46659,1.263 -4.94672,2.84337 -7.73363,3.51194 l -5.0671,1.21558 -4.49985,-4.34582 c -5.31884,-5.13676 -5.72624,-7.5691 -1.53289,-9.15191 1.65,-0.62281 3,-1.43196 3,-1.79813 0,-0.89854 -3.97351,-3.44101 -6.75,-4.31902 -1.99803,-0.63185 -2.25,-0.36897 -2.25,2.34739 0,1.9759 -0.7081,3.50113 -2,4.30793 -2.68582,1.67732 -2.52542,2.44487 0.87882,4.20527 3.82594,1.97846 4.67708,4.45121 2.33746,6.79082 -1.58572,1.58572 -2.49478,1.71934 -6.1341,0.90164 -3.87596,-0.87087 -9.08218,-4.41775 -9.08218,-6.18748 0,-0.38998 0.9,-0.94441 2,-1.23207 1.52413,-0.39857 2,-1.36402 2,-4.05761 0,-1.94404 0.5625,-3.89576 1.25,-4.33716 1.90372,-1.22227 -5.33232,-2.08057 -8,-0.94892 -1.2375,0.52496 -2.25,1.59474 -2.25,2.37729 0,4.33568 -5.84695,-3.81184 -5.95197,-8.29385 -0.058,-2.47441 1.73718,-4.45 4.04356,-4.45 0.98852,0 1.96331,-1.08261 2.34535,-2.60477 0.51803,-2.06401 1.10065,-2.48791 2.80637,-2.04185 2.89334,0.75662 5.19114,-1.12497 3.64658,-2.98606 -1.50019,-1.80761 -3.80967,-1.73994 -4.52826,0.13268 -1.07576,2.80339 -4.19108,1.59591 -6.68875,-2.59252 -2.74507,-4.60328 -2.91944,-4.49426 -4.65743,2.91206 -0.95866,4.08529 -0.98597,6.65295 -0.11767,11.06642 1.96568,9.99134 5.91202,16.0727 14.31928,22.06619 7.07228,5.04178 10.64769,6.79212 16.43084,8.0437 2.66866,0.57755 6.2021,1.66491 7.8521,2.41635 7.37752,3.35987 10.69543,4.5878 12.39642,4.5878 1.54569,0 5.59365,2.61645 10.81137,6.98806 0.66429,0.55657 1.81179,1.01194 2.55,1.01194 1.91539,0 3.74221,2.08438 3.74221,4.26982 0,1.02841 1.27726,3.75091 2.83835,6.05 3.32082,4.89074 5.16165,13.14576 5.16165,23.14696 0,3.92327 0.48646,7.61968 1.08102,8.21424 1.40822,1.40822 -2.49781,9.31898 -4.60134,9.31898 -0.81383,0 -1.47968,0.65934 -1.47968,1.4652 0,0.80587 -1.29626,2.94337 -2.88058,4.75 -1.58432,1.80664 -3.04682,4.14493 -3.25,5.19621 -0.29911,1.54763 -1.32108,1.94477 -5.36979,2.08672 -2.75021,0.0964 -7.31524,0.94419 -10.14453,1.88392 -4.25544,1.41343 -5.05584,2.04631 -4.63299,3.66328 0.29926,1.1444 0.009,1.95467 -0.6991,1.95467 -0.66564,0 -1.43185,-0.84741 -1.7027,-1.88312 -0.3261,-1.24704 -1.73007,-2.08778 -4.15638,-2.489 -7.26295,-1.201 -7.62738,-0.91121 -3.67767,2.92448 3.00979,2.92291 3.60608,4.15451 3.36517,6.95065 -0.20818,2.41639 0.34887,4.0813 1.9279,5.76209 2.83322,3.01583 2.7905,3.90424 -0.36822,7.65817 -2.3369,2.77724 -3.14731,3.07673 -8.32569,3.07673 -4.71038,0 -6.12741,-0.41579 -7.92003,-2.32395 l -2.18323,-2.32394 4.00905,-4.34259 c 2.20498,-2.38842 3.8965,-4.43169 3.75892,-4.5406 -0.13757,-0.10891 -1.26263,-0.7248 -2.50013,-1.36865 -1.63053,-0.84834 -2.25,-2.06398 -2.25,-4.41541 0,-2.41282 -0.89738,-4.09121 -3.5,-6.54606 -1.925,-1.81571 -3.5,-3.88463 -3.5,-4.5976 0,-0.71297 -0.73991,-1.91038 -1.64425,-2.66091 -1.44855,-1.2022 -1.56834,-1.12546 -1.00649,0.64477 0.98295,3.09701 -3.80289,7.78213 -7.40881,7.25289 -2.03208,-0.29824 -2.92639,0.0603 -3.25149,1.30348 -0.24665,0.94318 -1.64814,2.50095 -3.11443,3.46169 -2.35773,1.54485 -3.13027,1.59359 -6.68156,0.42156 -4.98472,-1.64511 -6.86521,-4.52918 -4.22202,-6.47522 1.72555,-1.27042 1.73002,-1.38501 0.079,-2.02503 -2.99083,-1.15943 -1.93871,-2.31359 2.75,-3.0167 3.50457,-0.52554 4.5,-1.09211 4.5,-2.56127 0,-1.03755 0.94217,-2.82863 2.09371,-3.98017 1.66487,-1.66487 2.81157,-1.95904 5.59844,-1.43622 4.74175,0.88956 3.59025,-0.72923 -3.27466,-4.60355 -2.97957,-1.68159 -5.41744,-3.7571 -5.41744,-4.61224 0,-1.24782 -8.35981,-10.25428 -9.51804,-10.25428 -0.16953,0 0.18936,1.31828 0.79754,2.92951 2.70034,7.15403 -3.80281,10.7558 -9.60638,5.32049 -2.1715,-2.03371 -3.06484,-2.39185 -3.42972,-1.375 -0.27137,0.75625 -1.38781,2.26941 -2.48097,3.36257 -3.48654,3.48654 -12.76243,0.38296 -12.76243,-4.27011 0,-3.82047 6.11478,-5.6531 11.43924,-3.4284 4.41332,1.844 5.29256,1.40748 6.12729,-3.04201 0.57035,-3.04021 0.22981,-3.82343 -2.97765,-6.84846 -3.50743,-3.30792 -3.82183,-3.39959 -9.96842,-2.9062 -4.14172,0.33246 -6.58854,0.11828 -7.04263,-0.61646 -1.01792,-1.64703 -2.57783,-1.37412 -2.57783,0.45099 0,1.75368 -5.25777,7.42308 -6.88412,7.42308 -2.29419,0 -5.11588,-4.44891 -5.11588,-8.06612 0,-5.14407 2.05151,-6.67864 6.68739,-5.00228 3.34553,1.20976 3.69912,1.13112 5.98133,-1.33013 2.86906,-3.09415 6.31247,-2.75354 10.386,1.02734 2.93107,2.7205 3.94528,2.96528 3.94528,0.95219 0,-1.69122 -13.8665,-14.581 -15.68588,-14.581 -0.94428,0 -1.01758,0.64975 -0.28937,2.5651 1.48826,3.91442 1.19922,5.24204 -1.53065,7.03072 -3.05477,2.00156 -6.78286,0.79977 -10.92239,-3.52097 -2.37766,-2.48175 -2.53369,-3.06419 -1.45504,-5.43157 1.59617,-3.50321 0.68832,-4.185 -5.23436,-3.93093 -2.72261,0.11678 -6.08845,-0.22043 -7.47966,-0.74936 -2.08218,-0.79165 -2.47404,-1.51867 -2.21606,-4.1115 0.30514,-3.06667 1.18556,-3.9626 5.31341,-5.40703 1.70116,-0.59528 1.47703,-0.84189 -1.5,-1.65044 -1.925,-0.52282 -3.9275,-1.36536 -4.45,-1.8723 -1.73742,-1.6857 -2.50643,-0.95389 -1.9454,1.85126 0.39885,1.99426 -0.006,3.28 -1.44044,4.57846 -1.87034,1.69263 -2.15305,1.70195 -4.52298,0.14911 -2.96289,-1.94136 -9.64118,-9.85101 -9.64118,-11.41885 0,-0.59493 -0.42344,-1.0817 -0.94098,-1.0817 -1.35275,0 -2.55421,2.22532 -2.23873,4.14655 0.2163,1.31721 -0.9458,1.78771 -5.80989,2.35224 -5.36897,0.62314 -6.00981,0.9277 -5.47795,2.60345 0.94001,2.9617 -0.40916,5.78264 -3.53997,7.40165 -4.56563,2.36098 -7.94852,0.35991 -7.97717,-4.71871 -0.0183,-3.25104 2.84216,-5.11004 6.46417,-4.20097 1.91151,0.47975 2.52052,0.24398 2.52052,-0.9758 0,-0.88463 -0.43417,-1.60841 -0.96482,-1.60841 -0.53065,0 -1.42074,-0.85191 -1.97798,-1.89313 -0.77933,-1.45618 -0.53033,-2.50696 1.07882,-4.55266 1.15059,-1.46274 1.92819,-2.8014 1.72798,-2.97479 -0.94414,-0.81769 -17.94914,-1.25068 -18.43204,-0.46932 -0.3025,0.48944 0.99981,0.8899 2.89401,0.8899 4.44166,0 7.16802,3.57051 5.69158,7.45383 -1.00734,2.64952 -2.44919,3.27482 -3.52763,1.52986 -0.34546,-0.55897 -1.0726,-0.74161 -1.61585,-0.40586 -1.67407,1.03463 -5.70945,-0.48379 -6.30941,-2.37409 -0.69502,-2.18985 -8.55636,-4.58644 -10.06466,-3.0683 -0.66807,0.67242 -0.19739,1.6622 1.41798,2.98185 3.06936,2.50748 1.96661,3.67497 -6.39952,6.77522 -3.28985,1.21913 -6.80369,2.96063 -7.80854,3.87 -3.91851,3.54621 -7.38506,-2.55698 -4.20715,-7.40709 2.54517,-3.88442 1.0925,-3.95314 -5.16419,-0.24431 -5.93809,3.51997 -20.33858,16.37939 -20.33858,18.16204 0,0.56039 1.10351,-0.17181 2.45225,-1.62713 2.82737,-3.05078 2.65756,-3.00874 6.0007,-1.4855 1.40088,0.63828 2.54705,1.95898 2.54705,2.9349 0,5.75492 -5.24189,10.06128 -6.43937,5.29012 -0.66311,-2.64202 -1.98157,-2.91949 -5.22753,-1.1001 -2.54079,1.42412 -8.3331,8.47284 -8.3331,10.14062 0,0.63308 -0.91317,2.93371 -2.02927,5.1125 -4.85814,9.48385 -7.94258,33.279 -5.52292,42.60703 0.7554,2.91216 1.87624,5.46243 2.49076,5.66727 0.70032,0.23344 0.88331,1.61967 0.49033,3.71445 -0.5171,2.75638 0.34772,5.32488 4.93519,14.65736 3.05919,6.22343 7.35011,13.56533 9.53537,16.31533 2.18526,2.75 5.64984,7.475 7.69905,10.5 4.87876,7.2019 19.48986,21.31925 31.40149,30.34034 8.85732,6.70795 12.18252,8.45175 34.07329,17.86868 2.51531,1.08203 7.24031,2.37057 10.5,2.86342 3.25969,0.49286 9.52671,1.54404 13.92671,2.33596 9.0825,1.63468 19.76201,1.76478 30,0.36546 z m -11.75,-2.85396 c -2.46719,-1.43701 -2.33197,-5.9199 0.17857,-5.9199 3.91796,0 6.72906,5.14993 3.48964,6.39301 -1.8909,0.72561 -1.53028,0.77212 -3.66821,-0.47311 z m -26.06234,-2.17249 c -1.57239,-1.16231 -1.55208,-1.46914 0.29771,-4.49741 2.19768,-3.5978 3.18495,-3.95463 4.97476,-1.79804 1.62001,1.95199 0.98905,4.51138 -1.52254,6.17597 -1.65952,1.09988 -2.39205,1.12322 -3.74993,0.11948 z m 10.94512,-3.77198 c -2.54624,-3.02603 -3.38139,-7.30842 -1.86747,-9.57573 2.05134,-3.07216 10.35048,-4.6394 11.83635,-2.23522 1.23855,2.00403 1.21648,6.74156 -0.0363,7.78124 -0.79594,0.66058 -2.46642,0.64428 -4.97559,-0.0485 -2.07754,-0.57364 -4.02428,-0.79605 -4.32608,-0.49425 -1.07804,1.07803 2.02572,3.59706 4.43204,3.59706 1.79457,0 2.36156,0.46863 2.11734,1.75 -0.57872,3.03641 -4.31252,2.63363 -7.18033,-0.77457 z m 23.2408,-2.18138 c -0.89454,-0.71173 -1.89579,-2.75655 -2.225,-4.54405 -0.56762,-3.0819 -0.44223,-3.25 2.42417,-3.25 3.39116,0 8.19964,4.32798 7.70649,6.93641 -0.37837,2.00129 -5.73756,2.58268 -7.90566,0.85764 z m -62.37358,-5.79405 c -0.33992,-0.55 -0.16803,-1 0.38197,-1 0.55,0 1.27811,0.45 1.61803,1 0.33992,0.55 0.16803,1 -0.38197,1 -0.55,0 -1.27811,-0.45 -1.61803,-1 z m 24.5,-0.43358 c 0,-0.82053 -1.176,-1.56889 -2.75,-1.75 -2.40944,-0.27723 -2.70839,-0.68794 -2.41399,-3.31642 0.46896,-4.18694 1.6448,-5.0702 4.37141,-3.28366 2.93024,1.91996 5.23939,6.1769 4.45684,8.2162 -0.75337,1.96326 -3.66426,2.06962 -3.66426,0.13388 z m -39.33333,-8.23309 c -1.06331,-1.0633 -0.80465,-1.8081 1.4793,-4.25963 1.88767,-2.02618 2.25385,-2.11065 3.04227,-0.70181 1.66629,2.9775 -2.23009,7.25293 -4.52157,4.96144 z m 10.33333,-3.14477 c 0,-4.72175 7.23518,-8.01996 10.07826,-4.59426 1.12802,1.35918 0.97652,1.85578 -1.02726,3.36723 -1.29274,0.97511 -3.13227,1.56847 -4.08785,1.31858 -0.95559,-0.24989 -2.03978,0.0349 -2.40931,0.63277 -1.0515,1.70136 -2.55384,1.27527 -2.55384,-0.72432 z m -6,-5.66951 c 0,-0.81452 -1.13573,-1.766 -2.52385,-2.11439 -2.28869,-0.57443 -2.46268,-0.97221 -1.86734,-4.26905 0.82214,-4.55283 0.77464,-4.50717 3.87863,-3.72812 3.79669,0.95291 5.10654,4.54321 3.08424,8.4539 -1.77454,3.43158 -2.57168,3.9454 -2.57168,1.65766 z m -23.92971,-9.21003 c -0.0387,-1.75504 0.37971,-3.4691 0.92971,-3.80902 1.19936,-0.74125 1.19936,2.20893 0,5 -0.72445,1.68588 -0.87047,1.49883 -0.92971,-1.19098 z m -8.69442,-6.4741 c -1.84634,-2.06765 -1.84232,-2.09029 0.2557,-1.43802 1.44605,0.44957 2.32038,0.17071 2.71862,-0.8671 0.83957,-2.18788 2.64981,-1.8907 2.64981,0.43502 0,1.08065 -0.84336,2.41617 -1.87413,2.96782 -1.45789,0.78024 -2.29077,0.53643 -3.75,-1.09772 z m 15.6619,0.71059 c -0.70546,-0.85003 -1.90256,-1.54551 -2.66022,-1.54551 -1.71959,0 -1.80237,-2.42273 -0.12755,-3.73312 2.60176,-2.03565 5.72719,-2.07266 8.23811,-0.0976 2.93063,2.30523 3.24168,4.38759 0.76189,5.10061 -0.9625,0.27674 -2.4654,0.79971 -3.33979,1.16214 -0.91326,0.37854 -2.13561,10e-4 -2.87244,-0.88655 z m -9.75045,-8.68071 c 0.30899,-0.89936 -0.13307,-2.62726 -0.98236,-3.83979 -1.22039,-1.74235 -1.31032,-2.71783 -0.42891,-4.65232 0.93682,-2.05609 1.43405,-2.2771 3.10779,-1.38134 1.0959,0.58651 2.28237,2.22115 2.63661,3.63253 0.50098,1.99607 0.0288,3.15598 -2.12543,5.22114 -1.7306,1.65904 -2.55875,2.04158 -2.2077,1.01978 z m -18.11064,-12.53193 c 0.17782,-0.91693 0.85041,-1.84262 1.49463,-2.05711 0.74511,-0.24807 0.97557,0.35856 0.63337,1.66714 -0.63917,2.44419 -2.59595,2.80279 -2.128,0.38997 z m -2.51001,-7.99954 c -0.36667,-0.36666 -0.66667,-1.57767 -0.66667,-2.69113 0,-1.99477 0.0215,-1.996 1.4682,-0.0833 0.80751,1.06762 1.4825,2.27863 1.5,2.69113 0.0394,0.92959 -1.40304,0.98182 -2.30153,0.0833 z m 9.00554,-1.05709 c -2.06372,-0.30951 -3.11205,-1.23952 -3.87982,-3.44193 -0.85234,-2.44502 -1.5019,-2.93183 -3.4222,-2.56474 -1.30361,0.2492 -2.37019,0.2276 -2.37019,-0.048 0,-1.25767 3.76918,-3.161 6.31672,-3.18977 3.83909,-0.0433 9.68328,4.5356 9.68328,7.58689 0,2.4612 -0.35288,2.55363 -6.32779,1.65755 z m 182.6945,-5.17323 c -6.14222,-3.78666 -8.26441,-10.07564 -4.53797,-13.44802 2.67206,-2.41818 6.30482,-1.97943 9.29637,1.12279 2.25977,2.34337 2.59592,3.48764 2.41539,8.22222 -0.24385,6.39535 -1.90985,7.34822 -7.17379,4.10301 z m -196.52592,-12.1909 c -0.27321,-1.93379 -0.85911,-2.35926 -2.95465,-2.1456 -1.43762,0.14658 -3.18482,-0.42147 -3.88268,-1.26233 -0.90285,-1.08788 -1.6294,-1.22959 -2.51894,-0.49133 -0.94206,0.78183 -1.35572,0.31811 -1.67858,-1.88174 -0.59095,-4.02637 0.75004,-7.13111 3.08005,-7.13111 2.96253,0 5.11401,1.06449 5.11401,2.53026 0,0.72396 1.125,2.65328 2.5,4.28737 2.65389,3.15397 3.02164,4.80994 1.57548,7.09448 -0.68692,1.08515 -0.9728,0.85362 -1.23469,-1 z m 162.15921,-1.26722 c 0,-0.74532 -2.30582,-3.39035 -5.12405,-5.87785 -2.81823,-2.48751 -4.93052,-5.10333 -4.69398,-5.81295 0.2716,-0.81479 2.31377,0.522 5.54213,3.62785 4.93644,4.74911 7.58535,9.41806 5.34329,9.41806 -0.58707,0 -1.06739,-0.6098 -1.06739,-1.35511 z m 38.99086,-3.13388 c 1.24904,-1.50499 3.00914,-1.18445 3.00914,0.54801 0,0.51754 -0.9551,0.94098 -2.12244,0.94098 -1.76626,0 -1.91507,-0.24988 -0.8867,-1.48899 z m -202.74086,-9.00936 c -1.2375,-1.91048 -2.25,-3.65243 -2.25,-3.87099 0,-1.62281 10.16018,-2.67558 11.23469,-1.16412 1.31916,1.85562 0.80387,5.18858 -1.06343,6.87847 -2.84645,2.57601 -5.45129,1.96983 -7.92126,-1.84336 z m 162.33889,-2.57838 c -2.99863,-3.56366 -3.35299,-7.92179 -0.82981,-10.20524 1.28355,-1.16159 3.24347,-1.49533 7.25,-1.23454 3.02001,0.19658 6.03759,0.39322 6.70574,0.43697 2.30541,0.15095 3.25443,3.56978 2.06589,7.44239 -0.98217,3.20019 -1.61475,3.74688 -4.95334,4.28074 -2.10505,0.33662 -3.82737,1.00451 -3.82737,1.48422 0,2.02155 -4.01752,0.64008 -6.41111,-2.20454 z m 107.33419,-3.84635 c -3.46892,-3.46891 -3.61577,-4.92659 -0.8505,-8.44206 2.26629,-2.88113 4.38238,-3.37349 5.62773,-1.30945 0.43983,0.72898 1.64478,1.63695 2.67766,2.01772 1.5243,0.56193 1.76882,1.3649 1.29839,4.26382 -1.12461,6.93017 -4.10973,8.11353 -8.75328,3.46997 z M 216.60495,364.2781 c -1.73107,-1.09754 -3.37063,-8.5081 -2.57964,-11.65964 0.73464,-2.92704 2.38879,-3.24182 3.08312,-0.58671 0.33562,1.28342 1.1084,1.72279 2.42467,1.37858 1.71281,-0.44791 1.90838,-0.009 1.72357,3.86618 -0.11466,2.40427 0.15026,5.15891 0.5887,6.12141 0.63715,1.39873 0.32405,1.74693 -1.55982,1.73469 -1.29634,-0.008 -2.95261,-0.39295 -3.6806,-0.85451 z m 285.3075,-5.15625 c -0.34878,-0.56434 -1.83784,-0.90184 -3.30902,-0.75 -3.87507,0.39994 -4.302,-4.18771 -0.72279,-7.76692 3.78129,-3.78129 8.64142,-3.16211 9.90201,1.26151 0.70475,2.47308 0.533,3.80485 -0.74151,5.75 -1.71528,2.61785 -4.0226,3.29511 -5.12869,1.50541 z m -151.3759,-2.23867 c -1.31561,-0.67939 -3.05036,-2.23625 -3.855,-3.45969 l -1.46298,-2.22444 4.09675,2.22444 c 2.25321,1.22344 4.10045,2.78693 4.10499,3.47443 0.01,1.51433 0.0779,1.51467 -2.88376,-0.0147 z m -119.46408,-7.3558 c -2.02462,-4.24566 -2.03637,-5.19593 -0.12093,-9.78022 1.2459,-2.98185 1.83719,-3.4754 3.25,-2.71277 0.94986,0.51273 2.29525,2.78429 2.98975,5.04792 1.05884,3.45114 1.02445,4.57649 -0.21301,6.96947 -2.22207,4.297 -4.01467,4.44137 -5.90581,0.4756 z m 258.35609,0.56152 c 0,-1.13246 0.43035,-1.79305 0.95633,-1.46797 0.52598,0.32507 0.70283,1.25163 0.39301,2.05902 -0.79323,2.06711 -1.34934,1.82352 -1.34934,-0.59105 z m -152,-4.44098 c -1.28767,-1.37066 -2.11622,-2.71711 -1.84122,-2.99211 0.275,-0.275 1.55355,0.62145 2.84122,1.99211 1.28767,1.37066 2.11622,2.71711 1.84122,2.99211 -0.275,0.275 -1.55355,-0.62145 -2.84122,-1.99211 z m 163.31471,-3.00972 c -6.61367,-2.78084 -6.20095,-7.87797 0.66007,-8.15202 3.02248,-0.12073 4.29985,0.30637 5.03727,1.68425 2.77511,5.18534 -0.33915,8.72072 -5.69734,6.46777 z m -163.75814,-8.42777 c -1.68601,-1.86302 -1.63299,-2.05522 1.37949,-5 1.72309,-1.68438 3.602,-3.06251 4.17534,-3.06251 0.57335,0 2.44926,1.40682 4.16871,3.12626 l 3.12626,3.12626 -2.31397,1.87374 c -3.0332,2.45614 -8.28412,2.42436 -10.53583,-0.0637 z m -96.39872,-1.40528 c -2.90389,-1.29575 -2.65827,-5.96086 0.34215,-6.49851 1.1,-0.19711 2.99931,-1.2795 4.22068,-2.40532 1.75727,-1.61978 2.51829,-1.79996 3.64677,-0.86341 0.80868,0.67115 1.19092,2.08279 0.88291,3.26063 -0.45304,1.73243 -0.20098,1.96848 1.51908,1.42256 2.58749,-0.82124 3.94205,1.1439 2.07526,3.01069 -1.99785,1.99785 -9.94532,3.29667 -12.68685,2.07336 z m 78.34215,0.34277 c -0.33992,-0.55 0.0835,-1 0.94098,-1 0.85746,0 1.55902,0.45 1.55902,1 0,0.55 -0.42344,1 -0.94098,1 -0.51754,0 -1.2191,-0.45 -1.55902,-1 z m -9.5,-2.35485 c -1.925,-0.62983 -4.4,-1.69397 -5.5,-2.36474 -1.88028,-1.14659 -1.83242,-1.22141 0.79966,-1.25 3.15555,-0.0343 8.70034,2.51194 8.70034,3.99527 0,0.53588 -0.1125,0.92714 -0.25,0.86947 -0.1375,-0.0577 -1.825,-0.62017 -3.75,-1.25 z m 182.24483,-2.89515 c -2.1044,-2.63036 -2.41566,-5.84034 -0.80471,-8.29896 2.08479,-3.18178 4.89417,-3.11281 7.4873,0.18382 2.53215,3.21911 2.67208,6.24237 0.32258,6.96952 -0.9625,0.29789 -2.53139,0.95877 -3.48643,1.46862 -2.21541,1.1827 -2.32193,1.17293 -3.51874,-0.323 z m -197.24483,-1.75 c 0,-0.55 1.125,-1 2.5,-1 1.375,0 2.5,0.45 2.5,1 0,0.55 -1.125,1 -2.5,1 -1.375,0 -2.5,-0.45 -2.5,-1 z m 23.38487,-2.69542 c -3.85302,-4.20651 -4.56734,-8.7945 -1.51984,-9.76174 2.02689,-0.64331 12.39977,4.28158 12.54707,5.95716 0.0483,0.55 -1.0371,1.1506 -2.4121,1.33468 -3.37271,0.4515 -4.70875,1.85657 -3.2,3.36532 1.66626,1.66626 1.49817,2.8 -0.41513,2.8 -0.88832,0 -3.13832,-1.66294 -5,-3.69542 z m -77.82736,-0.21153 c -0.83944,-1.35824 2.95147,-5.51455 4.28054,-4.69314 0.63907,0.39497 1.16195,1.08981 1.16195,1.5441 0,1.32262 -4.84038,4.12328 -5.44249,3.14904 z m 19.23191,-3.0745 c -0.33592,-2.28873 0.19969,-3.59199 2.30524,-5.60924 3.36231,-3.2213 5.35,-2.38259 4.49421,1.89635 -0.6758,3.37897 -3.2166,6.69434 -5.13036,6.69434 -0.67733,0 -1.42842,-1.34165 -1.66909,-2.98145 z m 13.59126,-4.54696 c -3.40553,-3.40554 -2.62171,-5.05078 2.21456,-4.64838 2.13648,0.17776 3.93693,0.40276 4.001,0.5 0.0641,0.0972 0.39487,1.63929 0.73512,3.42679 0.56547,2.97066 0.40201,3.25 -1.90181,3.25 -1.38626,0 -3.65824,-1.13778 -5.04887,-2.52841 z m 206.58672,-2.01087 c -2.10688,-2.53864 0.3068,-6.46072 3.97598,-6.46072 3.65203,0 6.09873,3.44203 3.90424,5.49251 -2.2876,2.13749 -6.4821,2.65285 -7.88022,0.96821 z m -19.7174,-7.44976 c -3.35703,-2.04682 -3.94771,-3.83875 -2.2878,-6.94034 1.57887,-2.95013 8.59482,-2.44924 11.14741,0.79586 l 2.04025,2.59375 -2.07493,1.68018 c -1.14121,0.9241 -2.07493,2.17054 -2.07493,2.76988 0,1.70107 -3.17991,1.2774 -6.75,-0.89933 z m -34.75,140.25102 c 3.97869,-0.60364 12.23327,-4.51756 10.64457,-5.04712 -0.68687,-0.22896 -3.44631,0.52903 -6.13209,1.68443 -2.68578,1.15539 -5.50131,2.10071 -6.25673,2.10071 -0.75542,0 -2.247,0.71174 -3.31462,1.58164 -1.91349,1.55911 -1.91265,1.57133 0.0589,0.85857 1.1,-0.39769 3.35,-0.92789 5,-1.17823 z m 70.05887,0.30944 c 1.91666,-1.41057 1.91592,-1.43699 -0.0589,-2.09593 -4.00367,-1.33594 -4.37316,-1.33325 -5.51298,0.0401 -2.55657,3.08048 1.93015,4.7359 5.57185,2.05578 z m 10.44113,-6.07142 c 1.04007,-1.2532 0.89568,-1.5 -0.87756,-1.5 -1.21995,0 -2.12244,0.63782 -2.12244,1.5 0,0.825 0.3949,1.5 0.87756,1.5 0.48265,0 1.43775,-0.675 2.12244,-1.5 z m -16.5083,-4.33457 c -0.88469,-0.18402 -2.36974,-0.0394 -3.30011,0.32142 -1.53459,0.59511 -1.50706,0.79177 0.29664,2.11901 1.77296,1.30462 2.13028,1.26981 3.30012,-0.32142 1.11075,-1.51086 1.06527,-1.83574 -0.29665,-2.11901 z m -31.4917,1.83457 c 0,-0.55 -0.87344,-1 -1.94098,-1 -1.06754,0 -2.2191,0.45 -2.55902,1 -0.35052,0.56716 0.48962,1 1.94098,1 1.40746,0 2.55902,-0.45 2.55902,-1 z m 42.73574,-3.75 c 2.71669,-1.11686 4.25812,-2.38314 4.26051,-3.5 0.005,-2.28404 -0.81137,-2.21023 -6.02043,0.54438 -7.57548,4.00602 -6.24208,6.24533 1.75992,2.95562 z m 23.76426,-7.25 c 0.33992,-0.55 0.14148,-1 -0.44098,-1 -0.58246,0 -1.05902,0.45 -1.05902,1 0,0.55 0.19844,1 0.44098,1 0.24254,0 0.7191,-0.45 1.05902,-1 z m 35,-6 c -0.33992,-0.55 -1.51803,-1 -2.61803,-1 -1.1,0 -1.72189,0.45 -1.38197,1 0.33992,0.55 1.51803,1 2.61803,1 1.1,0 1.72189,-0.45 1.38197,-1 z m -9.24752,-2.82279 c -1.3761,-0.87383 -7.05123,-0.71179 -7.99119,0.22816 -0.32704,0.32705 1.61788,0.58774 4.32204,0.57932 2.80654,-0.009 4.38126,-0.3553 3.66915,-0.80748 z M 436.92856,385.14792 c -0.33992,-0.55 -1.60398,-0.99311 -2.80902,-0.98469 -1.78123,0.0125 -1.91046,0.1966 -0.69098,0.98469 1.97012,1.27319 4.28687,1.27319 3.5,0 z M 258.19213,340.26459 c 0.95504,-0.48583 3.01591,-1.48434 4.57972,-2.2189 1.5638,-0.73457 2.33425,-1.50526 1.71211,-1.71264 -1.31898,-0.43966 -7.69084,2.41598 -8.57194,3.84163 -0.74723,1.20904 0.0206,1.23932 2.28011,0.0899 z m 20.95828,-6.23853 c 1.51713,-1.51712 0.47828,-3.87814 -1.70639,-3.87814 -2.16468,0 -4.42649,2.52592 -3.54253,3.9562 0.85118,1.37724 3.83804,1.33283 5.24892,-0.0781 z m -14.72185,-29.87814 c 0,-0.55 -0.19844,-1 -0.44098,-1 -0.24254,0 -0.7191,0.45 -1.05902,1 -0.33992,0.55 -0.14148,1 0.44098,1 0.58246,0 1.05902,-0.45 1.05902,-1 z M 500.84357,276.0104 c -0.93043,-1.50546 -4.42009,2.11085 -4.38341,4.54251 0.0292,1.93755 0.21819,1.88289 2.51429,-0.72736 1.36548,-1.55231 2.20658,-3.26912 1.86912,-3.81515 z m -76.54616,-3.43267 c -2.79337,-1.49497 -3.64006,-1.06399 -1.93824,0.98658 0.66859,0.8056 1.91052,1.19807 2.75984,0.87215 1.23704,-0.47469 1.0736,-0.84445 -0.8216,-1.85873 z m 11.13115,0.13362 c 0,-0.7252 -0.68344,-1.88575 -1.51876,-2.579 -1.24374,-1.03221 -1.88371,-0.93017 -3.53421,0.5635 -2.00742,1.8167 -2.00436,1.82865 0.76876,2.99887 3.06969,1.29538 4.28421,1.0166 4.28421,-0.98337 z m 43.20233,-1.20364 c 3.10882,-2.15442 3.5903,-2.90473 2.61673,-4.0778 -1.02207,-1.23153 -1.41713,-1.15654 -2.75607,0.52317 -0.85965,1.07842 -2.58809,2.48601 -3.841,3.12797 -1.2529,0.64197 -2.01385,1.59464 -1.69098,2.11704 0.86438,1.39861 1.47768,1.21581 5.67132,-1.69038 z m -13.20233,-1.32461 c 0,-1.08064 -0.9,-2.44648 -2,-3.03518 -1.79581,-0.96109 -2,-0.76049 -2,1.96482 0,2.36851 0.43929,3.03518 2,3.03518 1.3214,0 2,-0.66667 2,-1.96482 z m 49,-5.5 c 0,-2.12275 -3.18375,-3.57148 -5.27582,-2.4007 -3.05137,1.70763 -2.06003,3.86552 1.77582,3.86552 2.40708,0 3.5,-0.45741 3.5,-1.46482 z m 4.4728,-7.49116 c 0.89036,-1.44064 -2.17215,-8.04402 -3.73064,-8.04402 -0.74795,0 -2.23341,0.64286 -3.30103,1.42858 -2.10148,1.54659 -2.28927,1.36155 3.10199,3.05658 1.2178,0.38288 1.31579,0.90994 0.46482,2.5 -0.91187,1.70384 -0.77328,2.01484 0.89786,2.01484 1.08689,0 2.24204,-0.43019 2.567,-0.95598 z m -56.4728,-2.04402 c 0,-0.55 -0.45,-1 -1,-1 -0.55,0 -1,0.45 -1,1 0,0.55 0.45,1 1,1 0.55,0 1,-0.45 1,-1 z m 70.8125,-3.9375 c 0.25,-0.75 -0.125,-1.125 -0.875,-0.875 -0.72188,0.24062 -1.50937,1.02812 -1.75,1.75 -0.25,0.75 0.125,1.125 0.875,0.875 0.72187,-0.24063 1.50937,-1.02813 1.75,-1.75 z m -92.2305,-3.97691 c -1.4201,-1.48227 -2.582,-3.4579 -2.582,-4.39031 0,-0.9324 -0.69083,-1.69528 -1.53518,-1.69528 -1.20608,0 -1.31404,0.41323 -0.50359,1.92756 0.56738,1.06015 0.77272,2.60219 0.45631,3.42673 -0.37279,0.97149 0.41908,2.02019 2.24971,2.97935 3.98496,2.08793 4.96571,0.93646 1.91475,-2.24805 z m 89.418,-1.08559 c 0,-0.55 -0.675,-1 -1.5,-1 -0.825,0 -1.5,0.45 -1.5,1 0,0.55 0.675,1 1.5,1 0.825,0 1.5,-0.45 1.5,-1 z"
         style="fill:#ffffff;fill-opacity:1;fill-rule:nonzero" />
    </g>
  </g>
</svg>
